<svg id="Capa_1" enable-background="new 0 0 512 512" height="512" viewBox="0 0 512 512" width="512" xmlns="http://www.w3.org/2000/svg"><g><path d="m430 304.544v-189.544c0-1.908-.364-3.799-1.073-5.571l-40-100c-2.278-5.695-7.793-9.429-13.927-9.429h-320c-6.134 0-11.649 3.734-13.927 9.429l-40 100c-.709 1.772-1.073 3.663-1.073 5.571v300c0 8.284 6.716 15 15 15h289.544c10.516 46.871 52.458 82 102.456 82 57.897 0 105-47.103 105-105 0-49.998-35.129-91.94-82-102.456zm18.33 39.914-41.33 41.329-41.33-41.33c11.86-7.863 26.066-12.457 41.33-12.457s29.47 4.594 41.33 12.458zm-83.485-314.458 28 70h-124.27l-7-70zm-166.27 0h32.85l7 70h-46.85zm-8.575 100h50v40.729l-18.292-9.146c-4.223-2.111-9.193-2.111-13.416 0l-18.292 9.146zm-124.845-100h103.27l-7 70h-124.27zm237.084 370h-272.239v-270h130v65c0 11.151 11.735 18.403 21.708 13.417l33.292-16.646 33.292 16.646c9.973 4.986 21.708-2.266 21.708-13.417v-65h130v172.239c-52.331 3.462-94.299 45.43-97.761 97.761zm29.761 7c0-15.264 4.594-29.47 12.458-41.33l41.33 41.33-41.33 41.33c-7.864-11.86-12.458-26.066-12.458-41.33zm75 75c-15.264 0-29.47-4.594-41.33-12.458l41.33-41.33 41.33 41.33c-11.86 7.864-26.066 12.458-41.33 12.458zm62.542-33.67-41.329-41.33 41.33-41.33c7.863 11.86 12.457 26.066 12.457 41.33s-4.594 29.47-12.458 41.33z"/><path d="m75 280c-8.284 0-15 6.716-15 15v60c0 8.284 6.716 15 15 15s15-6.716 15-15v-60c0-8.284-6.716-15-15-15z"/><path d="m135 280c-8.284 0-15 6.716-15 15v60c0 8.284 6.716 15 15 15s15-6.716 15-15v-60c0-8.284-6.716-15-15-15z"/></g></svg>